<svg width="183" height="168" viewBox="0 0 183 168" fill="none" xmlns="http://www.w3.org/2000/svg">
<path d="M66.0645 0.628906H68.7012C79.248 0.628906 86.8896 5.68262 91.626 15.79C92.749 18.8662 93.3105 22.0156 93.3105 25.2383C93.3105 32.6113 90.6494 39.5205 85.3271 45.9658C84.6924 46.2588 84.2041 46.4053 83.8623 46.4053C83.0811 46.21 82.6904 45.9902 82.6904 45.7461V44.7207C82.6904 43.5 83.7402 42.5479 85.8398 41.8643C89.0625 36.1514 90.6738 30.6094 90.6738 25.2383C90.6738 14.8867 85.5225 7.63574 75.2197 3.48535C72.29 2.7041 69.3848 2.31348 66.5039 2.31348C52.2461 2.31348 36.1816 10.9072 18.3105 28.0947C8.83789 39.1787 3.78418 48.2607 3.14941 55.3408C2.80762 56.6104 2.63672 57.9775 2.63672 59.4424V61.127C2.63672 79.584 21.8506 93.1582 60.2783 101.85C76.7334 91.2539 90.7227 84.6865 102.246 82.1475L102.466 82.5869C102.466 83.124 99.4141 84.2471 93.3105 85.9561C83.0078 90.0088 72.6318 95.4043 62.1826 102.143V102.582C74.0967 106.781 80.0537 113.3 80.0537 122.138C80.0537 132.636 72.0947 143.964 56.1768 156.122C44.7021 163.837 34.5703 167.694 25.7812 167.694H24.3164C17.041 167.694 12.7197 165.204 11.3525 160.224C11.1572 159.979 11.0596 159.589 11.0596 159.052V157.587C11.0596 149.188 19.5068 136.884 36.4014 120.673C46.7529 111.591 54.2236 105.731 58.8135 103.095V102.875C43.335 99.3105 31.2744 95.4531 22.6318 91.3027C7.54395 83.0996 0 73.5293 0 62.5918V59.4424C0 50.1162 5.46875 39.4229 16.4062 27.3623C26.6113 17.4014 35.9375 10.4189 44.3848 6.41504C52.6855 2.55762 59.9121 0.628906 66.0645 0.628906ZM60.2783 103.314C51.9775 109.223 44.0918 115.57 36.6211 122.357C20.8984 137.738 13.0371 149.311 13.0371 157.074V159.052C13.0371 163.153 16.6504 165.644 23.877 166.522H25.5615C38.4521 166.522 52.3438 159.271 67.2363 144.77C74.4629 136.469 78.0762 128.852 78.0762 121.918C78.0762 113.666 72.1436 107.465 60.2783 103.314ZM129.858 49.9941H130.151C130.444 50.043 130.591 50.165 130.591 50.3604C130.591 51.6787 129.785 55.8047 128.174 62.7383C125.879 71.0879 123.389 77.9727 120.703 83.3926C119.141 86.4688 117.456 88.8857 115.649 90.6436C114.331 91.6689 113.257 92.1816 112.427 92.1816H111.914C110.352 92.1816 109.229 90.8877 108.545 88.2998C108.301 86.9814 108.179 85.5166 108.179 83.9053C106.86 85.7607 105.762 87.2256 104.883 88.2998C102.344 90.8389 100.391 92.1084 99.0234 92.1084H98.5107C98.0225 92.1084 97.7295 91.7666 97.6318 91.083V90.7168C97.6318 89.1055 98.8281 86.542 101.221 83.0264C103.076 80.7803 104.736 79.6572 106.201 79.6572C107.031 79.6572 107.739 80.0234 108.325 80.7559V80.9023L108.252 81.1221C108.496 80.9756 108.691 80.9023 108.838 80.9023H108.984C109.717 80.9023 110.083 81.415 110.083 82.4404C110.083 86.9814 110.742 89.7646 112.061 90.79C112.451 90.9365 112.695 91.0098 112.793 91.0098C114.795 91.0098 117.554 87.0547 121.069 79.1445C122.632 75.4336 124.194 70.9902 125.757 65.8145C126.978 61.7129 128.101 56.5615 129.126 50.3604C129.419 50.1162 129.663 49.9941 129.858 49.9941ZM99.4629 90.4238C99.5605 90.7656 99.6826 90.9365 99.8291 90.9365C101.05 90.6436 102.93 88.8369 105.469 85.5166C106.982 83.3682 107.739 82.1719 107.739 81.9277C107.739 81.7812 107.861 81.5615 108.105 81.2686H108.032C107.886 81.415 107.617 81.5127 107.227 81.5615C106.982 81.5615 106.641 81.4395 106.201 81.1953L105.908 81.1221C104.688 81.1221 103.101 82.8066 101.147 86.1758C100.171 88.0312 99.6094 89.4473 99.4629 90.4238ZM130.884 44.2812H132.056C132.349 44.2812 132.544 44.5986 132.642 45.2334C132.642 45.9658 132.251 46.8936 131.47 48.0166C130.054 59.8818 129.346 73.8223 129.346 89.8379V94.3789C129.346 94.623 129.468 94.7451 129.712 94.7451C133.179 84.2471 136.401 78.998 139.38 78.998H139.746C141.357 78.998 142.163 81.293 142.163 85.8828C142.163 91.4004 142.944 94.1592 144.507 94.1592C146.802 94.1592 151.392 90.4727 158.276 83.0996C158.276 82.9043 158.618 82.6357 159.302 82.2939H159.888C160.132 82.3428 160.254 82.4893 160.254 82.7334V82.8799C152.637 91.1807 147.388 95.3311 144.507 95.3311H143.481C141.382 95.3311 140.332 92.2549 140.332 86.1025C140.332 82.1475 140.015 80.1699 139.38 80.1699H139.16C137.354 80.1699 134.277 86.2002 129.932 98.2607L129.126 98.8467H128.32C127.637 98.8467 127.246 96.8936 127.148 92.9873V85.4434C127.148 70.0625 128.003 56.8057 129.712 45.6729C130.298 44.7451 130.688 44.2812 130.884 44.2812ZM179.956 51.8984H180.249C180.396 51.8984 180.469 51.9961 180.469 52.1914C179.639 57.123 178.223 62.8115 176.221 69.2568C172.705 79.4131 169.556 86.2979 166.772 89.9111C164.966 91.9619 163.403 92.9873 162.085 92.9873H161.719C160.4 92.9873 159.473 92.1328 158.936 90.4238C158.691 89.5449 158.569 88.5684 158.569 87.4941V86.1758C158.569 84.4668 158.789 82.5381 159.229 80.3896C159.521 80.0967 159.888 79.9258 160.327 79.877C160.962 79.9258 161.279 80.1211 161.279 80.4629C160.791 83.0508 160.547 85.4922 160.547 87.7871C160.693 90.5703 161.157 91.9619 161.938 91.9619H162.378C164.966 91.3271 167.603 87.665 170.288 80.9756C172.632 75.9463 175.317 67.9385 178.345 56.9521C178.931 54.0225 179.297 52.3867 179.443 52.0449C179.639 51.9473 179.81 51.8984 179.956 51.8984ZM181.421 43.0361H181.567C181.86 43.0361 182.08 43.1582 182.227 43.4023C181.396 50.1406 180.981 54.3398 180.981 56C180.298 65.5703 179.956 75.3359 179.956 85.2969C179.956 97.4551 180.542 105.17 181.714 108.441C181.714 108.783 181.445 109.003 180.908 109.101H180.615C180.176 109.101 179.858 108.49 179.663 107.27C178.687 102.631 178.198 95.3066 178.198 85.2969V81.0488C178.198 67.8164 178.784 55.9756 179.956 45.5264C180.103 43.9639 180.371 43.1826 180.762 43.1826C180.762 43.085 180.981 43.0361 181.421 43.0361ZM160.767 73.2119C160.132 73.6514 159.814 74.0908 159.814 74.5303V74.9697C159.814 76.0439 160.352 76.5322 161.426 76.4346C162.158 75.9951 162.524 75.4092 162.524 74.6768C162.231 73.4072 161.646 72.9189 160.767 73.2119Z" fill="white"/>
</svg>
