<svg width="187" height="172" viewBox="0 0 187 172" fill="none" xmlns="http://www.w3.org/2000/svg">
<mask id="path-1-outside-1_1073_2" maskUnits="userSpaceOnUse" x="0" y="0" width="187" height="172" fill="black">
<rect fill="white" width="187" height="172"/>
<path d="M68.0645 2.62891H70.7012C81.248 2.62891 88.8896 7.68262 93.626 17.79C94.749 20.8662 95.3105 24.0156 95.3105 27.2383C95.3105 34.6113 92.6494 41.5205 87.3271 47.9658C86.6924 48.2588 86.2041 48.4053 85.8623 48.4053C85.0811 48.21 84.6904 47.9902 84.6904 47.7461V46.7207C84.6904 45.5 85.7402 44.5479 87.8398 43.8643C91.0625 38.1514 92.6738 32.6094 92.6738 27.2383C92.6738 16.8867 87.5225 9.63574 77.2197 5.48535C74.29 4.7041 71.3848 4.31348 68.5039 4.31348C54.2461 4.31348 38.1816 12.9072 20.3105 30.0947C10.8379 41.1787 5.78418 50.2607 5.14941 57.3408C4.80762 58.6104 4.63672 59.9775 4.63672 61.4424V63.127C4.63672 81.584 23.8506 95.1582 62.2783 103.85C78.7334 93.2539 92.7227 86.6865 104.246 84.1475L104.466 84.5869C104.466 85.124 101.414 86.2471 95.3105 87.9561C85.0078 92.0088 74.6318 97.4043 64.1826 104.143V104.582C76.0967 108.781 82.0537 115.3 82.0537 124.138C82.0537 134.636 74.0947 145.964 58.1768 158.122C46.7021 165.837 36.5703 169.694 27.7812 169.694H26.3164C19.041 169.694 14.7197 167.204 13.3525 162.224C13.1572 161.979 13.0596 161.589 13.0596 161.052V159.587C13.0596 151.188 21.5068 138.884 38.4014 122.673C48.7529 113.591 56.2236 107.731 60.8135 105.095V104.875C45.335 101.311 33.2744 97.4531 24.6318 93.3027C9.54395 85.0996 2 75.5293 2 64.5918V61.4424C2 52.1162 7.46875 41.4229 18.4062 29.3623C28.6113 19.4014 37.9375 12.4189 46.3848 8.41504C54.6855 4.55762 61.9121 2.62891 68.0645 2.62891ZM62.2783 105.314C53.9775 111.223 46.0918 117.57 38.6211 124.357C22.8984 139.738 15.0371 151.311 15.0371 159.074V161.052C15.0371 165.153 18.6504 167.644 25.877 168.522H27.5615C40.4521 168.522 54.3438 161.271 69.2363 146.77C76.4629 138.469 80.0762 130.852 80.0762 123.918C80.0762 115.666 74.1436 109.465 62.2783 105.314ZM131.858 51.9941H132.151C132.444 52.043 132.591 52.165 132.591 52.3604C132.591 53.6787 131.785 57.8047 130.174 64.7383C127.879 73.0879 125.389 79.9727 122.703 85.3926C121.141 88.4688 119.456 90.8857 117.649 92.6436C116.331 93.6689 115.257 94.1816 114.427 94.1816H113.914C112.352 94.1816 111.229 92.8877 110.545 90.2998C110.301 88.9814 110.179 87.5166 110.179 85.9053C108.86 87.7607 107.762 89.2256 106.883 90.2998C104.344 92.8389 102.391 94.1084 101.023 94.1084H100.511C100.022 94.1084 99.7295 93.7666 99.6318 93.083V92.7168C99.6318 91.1055 100.828 88.542 103.221 85.0264C105.076 82.7803 106.736 81.6572 108.201 81.6572C109.031 81.6572 109.739 82.0234 110.325 82.7559V82.9023L110.252 83.1221C110.496 82.9756 110.691 82.9023 110.838 82.9023H110.984C111.717 82.9023 112.083 83.415 112.083 84.4404C112.083 88.9814 112.742 91.7646 114.061 92.79C114.451 92.9365 114.695 93.0098 114.793 93.0098C116.795 93.0098 119.554 89.0547 123.069 81.1445C124.632 77.4336 126.194 72.9902 127.757 67.8145C128.978 63.7129 130.101 58.5615 131.126 52.3604C131.419 52.1162 131.663 51.9941 131.858 51.9941ZM101.463 92.4238C101.561 92.7656 101.683 92.9365 101.829 92.9365C103.05 92.6436 104.93 90.8369 107.469 87.5166C108.982 85.3682 109.739 84.1719 109.739 83.9277C109.739 83.7812 109.861 83.5615 110.105 83.2686H110.032C109.886 83.415 109.617 83.5127 109.227 83.5615C108.982 83.5615 108.641 83.4395 108.201 83.1953L107.908 83.1221C106.688 83.1221 105.101 84.8066 103.147 88.1758C102.171 90.0312 101.609 91.4473 101.463 92.4238ZM132.884 46.2812H134.056C134.349 46.2812 134.544 46.5986 134.642 47.2334C134.642 47.9658 134.251 48.8936 133.47 50.0166C132.054 61.8818 131.346 75.8223 131.346 91.8379V96.3789C131.346 96.623 131.468 96.7451 131.712 96.7451C135.179 86.2471 138.401 80.998 141.38 80.998H141.746C143.357 80.998 144.163 83.293 144.163 87.8828C144.163 93.4004 144.944 96.1592 146.507 96.1592C148.802 96.1592 153.392 92.4727 160.276 85.0996C160.276 84.9043 160.618 84.6357 161.302 84.2939H161.888C162.132 84.3428 162.254 84.4893 162.254 84.7334V84.8799C154.637 93.1807 149.388 97.3311 146.507 97.3311H145.481C143.382 97.3311 142.332 94.2549 142.332 88.1025C142.332 84.1475 142.015 82.1699 141.38 82.1699H141.16C139.354 82.1699 136.277 88.2002 131.932 100.261L131.126 100.847H130.32C129.637 100.847 129.246 98.8936 129.148 94.9873V87.4434C129.148 72.0625 130.003 58.8057 131.712 47.6729C132.298 46.7451 132.688 46.2812 132.884 46.2812ZM181.956 53.8984H182.249C182.396 53.8984 182.469 53.9961 182.469 54.1914C181.639 59.123 180.223 64.8115 178.221 71.2568C174.705 81.4131 171.556 88.2979 168.772 91.9111C166.966 93.9619 165.403 94.9873 164.085 94.9873H163.719C162.4 94.9873 161.473 94.1328 160.936 92.4238C160.691 91.5449 160.569 90.5684 160.569 89.4941V88.1758C160.569 86.4668 160.789 84.5381 161.229 82.3896C161.521 82.0967 161.888 81.9258 162.327 81.877C162.962 81.9258 163.279 82.1211 163.279 82.4629C162.791 85.0508 162.547 87.4922 162.547 89.7871C162.693 92.5703 163.157 93.9619 163.938 93.9619H164.378C166.966 93.3271 169.603 89.665 172.288 82.9756C174.632 77.9463 177.317 69.9385 180.345 58.9521C180.931 56.0225 181.297 54.3867 181.443 54.0449C181.639 53.9473 181.81 53.8984 181.956 53.8984ZM183.421 45.0361H183.567C183.86 45.0361 184.08 45.1582 184.227 45.4023C183.396 52.1406 182.981 56.3398 182.981 58C182.298 67.5703 181.956 77.3359 181.956 87.2969C181.956 99.4551 182.542 107.17 183.714 110.441C183.714 110.783 183.445 111.003 182.908 111.101H182.615C182.176 111.101 181.858 110.49 181.663 109.27C180.687 104.631 180.198 97.3066 180.198 87.2969V83.0488C180.198 69.8164 180.784 57.9756 181.956 47.5264C182.103 45.9639 182.371 45.1826 182.762 45.1826C182.762 45.085 182.981 45.0361 183.421 45.0361ZM162.767 75.2119C162.132 75.6514 161.814 76.0908 161.814 76.5303V76.9697C161.814 78.0439 162.352 78.5322 163.426 78.4346C164.158 77.9951 164.524 77.4092 164.524 76.6768C164.231 75.4072 163.646 74.9189 162.767 75.2119Z"/>
</mask>
<path d="M68.0645 2.62891H70.7012C81.248 2.62891 88.8896 7.68262 93.626 17.79C94.749 20.8662 95.3105 24.0156 95.3105 27.2383C95.3105 34.6113 92.6494 41.5205 87.3271 47.9658C86.6924 48.2588 86.2041 48.4053 85.8623 48.4053C85.0811 48.21 84.6904 47.9902 84.6904 47.7461V46.7207C84.6904 45.5 85.7402 44.5479 87.8398 43.8643C91.0625 38.1514 92.6738 32.6094 92.6738 27.2383C92.6738 16.8867 87.5225 9.63574 77.2197 5.48535C74.29 4.7041 71.3848 4.31348 68.5039 4.31348C54.2461 4.31348 38.1816 12.9072 20.3105 30.0947C10.8379 41.1787 5.78418 50.2607 5.14941 57.3408C4.80762 58.6104 4.63672 59.9775 4.63672 61.4424V63.127C4.63672 81.584 23.8506 95.1582 62.2783 103.85C78.7334 93.2539 92.7227 86.6865 104.246 84.1475L104.466 84.5869C104.466 85.124 101.414 86.2471 95.3105 87.9561C85.0078 92.0088 74.6318 97.4043 64.1826 104.143V104.582C76.0967 108.781 82.0537 115.3 82.0537 124.138C82.0537 134.636 74.0947 145.964 58.1768 158.122C46.7021 165.837 36.5703 169.694 27.7812 169.694H26.3164C19.041 169.694 14.7197 167.204 13.3525 162.224C13.1572 161.979 13.0596 161.589 13.0596 161.052V159.587C13.0596 151.188 21.5068 138.884 38.4014 122.673C48.7529 113.591 56.2236 107.731 60.8135 105.095V104.875C45.335 101.311 33.2744 97.4531 24.6318 93.3027C9.54395 85.0996 2 75.5293 2 64.5918V61.4424C2 52.1162 7.46875 41.4229 18.4062 29.3623C28.6113 19.4014 37.9375 12.4189 46.3848 8.41504C54.6855 4.55762 61.9121 2.62891 68.0645 2.62891ZM62.2783 105.314C53.9775 111.223 46.0918 117.57 38.6211 124.357C22.8984 139.738 15.0371 151.311 15.0371 159.074V161.052C15.0371 165.153 18.6504 167.644 25.877 168.522H27.5615C40.4521 168.522 54.3438 161.271 69.2363 146.77C76.4629 138.469 80.0762 130.852 80.0762 123.918C80.0762 115.666 74.1436 109.465 62.2783 105.314ZM131.858 51.9941H132.151C132.444 52.043 132.591 52.165 132.591 52.3604C132.591 53.6787 131.785 57.8047 130.174 64.7383C127.879 73.0879 125.389 79.9727 122.703 85.3926C121.141 88.4688 119.456 90.8857 117.649 92.6436C116.331 93.6689 115.257 94.1816 114.427 94.1816H113.914C112.352 94.1816 111.229 92.8877 110.545 90.2998C110.301 88.9814 110.179 87.5166 110.179 85.9053C108.86 87.7607 107.762 89.2256 106.883 90.2998C104.344 92.8389 102.391 94.1084 101.023 94.1084H100.511C100.022 94.1084 99.7295 93.7666 99.6318 93.083V92.7168C99.6318 91.1055 100.828 88.542 103.221 85.0264C105.076 82.7803 106.736 81.6572 108.201 81.6572C109.031 81.6572 109.739 82.0234 110.325 82.7559V82.9023L110.252 83.1221C110.496 82.9756 110.691 82.9023 110.838 82.9023H110.984C111.717 82.9023 112.083 83.415 112.083 84.4404C112.083 88.9814 112.742 91.7646 114.061 92.79C114.451 92.9365 114.695 93.0098 114.793 93.0098C116.795 93.0098 119.554 89.0547 123.069 81.1445C124.632 77.4336 126.194 72.9902 127.757 67.8145C128.978 63.7129 130.101 58.5615 131.126 52.3604C131.419 52.1162 131.663 51.9941 131.858 51.9941ZM101.463 92.4238C101.561 92.7656 101.683 92.9365 101.829 92.9365C103.05 92.6436 104.93 90.8369 107.469 87.5166C108.982 85.3682 109.739 84.1719 109.739 83.9277C109.739 83.7812 109.861 83.5615 110.105 83.2686H110.032C109.886 83.415 109.617 83.5127 109.227 83.5615C108.982 83.5615 108.641 83.4395 108.201 83.1953L107.908 83.1221C106.688 83.1221 105.101 84.8066 103.147 88.1758C102.171 90.0312 101.609 91.4473 101.463 92.4238ZM132.884 46.2812H134.056C134.349 46.2812 134.544 46.5986 134.642 47.2334C134.642 47.9658 134.251 48.8936 133.47 50.0166C132.054 61.8818 131.346 75.8223 131.346 91.8379V96.3789C131.346 96.623 131.468 96.7451 131.712 96.7451C135.179 86.2471 138.401 80.998 141.38 80.998H141.746C143.357 80.998 144.163 83.293 144.163 87.8828C144.163 93.4004 144.944 96.1592 146.507 96.1592C148.802 96.1592 153.392 92.4727 160.276 85.0996C160.276 84.9043 160.618 84.6357 161.302 84.2939H161.888C162.132 84.3428 162.254 84.4893 162.254 84.7334V84.8799C154.637 93.1807 149.388 97.3311 146.507 97.3311H145.481C143.382 97.3311 142.332 94.2549 142.332 88.1025C142.332 84.1475 142.015 82.1699 141.38 82.1699H141.16C139.354 82.1699 136.277 88.2002 131.932 100.261L131.126 100.847H130.32C129.637 100.847 129.246 98.8936 129.148 94.9873V87.4434C129.148 72.0625 130.003 58.8057 131.712 47.6729C132.298 46.7451 132.688 46.2812 132.884 46.2812ZM181.956 53.8984H182.249C182.396 53.8984 182.469 53.9961 182.469 54.1914C181.639 59.123 180.223 64.8115 178.221 71.2568C174.705 81.4131 171.556 88.2979 168.772 91.9111C166.966 93.9619 165.403 94.9873 164.085 94.9873H163.719C162.4 94.9873 161.473 94.1328 160.936 92.4238C160.691 91.5449 160.569 90.5684 160.569 89.4941V88.1758C160.569 86.4668 160.789 84.5381 161.229 82.3896C161.521 82.0967 161.888 81.9258 162.327 81.877C162.962 81.9258 163.279 82.1211 163.279 82.4629C162.791 85.0508 162.547 87.4922 162.547 89.7871C162.693 92.5703 163.157 93.9619 163.938 93.9619H164.378C166.966 93.3271 169.603 89.665 172.288 82.9756C174.632 77.9463 177.317 69.9385 180.345 58.9521C180.931 56.0225 181.297 54.3867 181.443 54.0449C181.639 53.9473 181.81 53.8984 181.956 53.8984ZM183.421 45.0361H183.567C183.86 45.0361 184.08 45.1582 184.227 45.4023C183.396 52.1406 182.981 56.3398 182.981 58C182.298 67.5703 181.956 77.3359 181.956 87.2969C181.956 99.4551 182.542 107.17 183.714 110.441C183.714 110.783 183.445 111.003 182.908 111.101H182.615C182.176 111.101 181.858 110.49 181.663 109.27C180.687 104.631 180.198 97.3066 180.198 87.2969V83.0488C180.198 69.8164 180.784 57.9756 181.956 47.5264C182.103 45.9639 182.371 45.1826 182.762 45.1826C182.762 45.085 182.981 45.0361 183.421 45.0361ZM162.767 75.2119C162.132 75.6514 161.814 76.0908 161.814 76.5303V76.9697C161.814 78.0439 162.352 78.5322 163.426 78.4346C164.158 77.9951 164.524 77.4092 164.524 76.6768C164.231 75.4072 163.646 74.9189 162.767 75.2119Z" fill="white"/>
<path d="M93.626 17.79L95.5047 17.1042L95.4744 17.0213L95.437 16.9414L93.626 17.79ZM87.3271 47.9658L88.1653 49.7817L88.5791 49.5907L88.8693 49.2393L87.3271 47.9658ZM85.8623 48.4053L85.3772 50.3456L85.6161 50.4053H85.8623V48.4053ZM87.8398 43.8643L88.459 45.766L89.1993 45.525L89.5818 44.8469L87.8398 43.8643ZM77.2197 5.48535L77.9671 3.63022L77.8534 3.58445L77.7351 3.55288L77.2197 5.48535ZM20.3105 30.0947L18.9242 28.6532L18.8537 28.721L18.7901 28.7954L20.3105 30.0947ZM5.14941 57.3408L7.08065 57.8608L7.12589 57.6927L7.14142 57.5194L5.14941 57.3408ZM62.2783 103.85L61.8371 105.8L62.6556 105.985L63.3611 105.531L62.2783 103.85ZM104.246 84.1475L106.035 83.253L105.338 81.8589L103.816 82.1943L104.246 84.1475ZM104.466 84.5869H106.466V84.1148L106.255 83.6925L104.466 84.5869ZM95.3105 87.9561L94.7713 86.0301L94.6732 86.0576L94.5784 86.0949L95.3105 87.9561ZM64.1826 104.143L63.0987 102.462L62.1826 103.053V104.143H64.1826ZM64.1826 104.582H62.1826V105.998L63.5178 106.468L64.1826 104.582ZM58.1768 158.122L59.2927 159.782L59.3428 159.748L59.3908 159.711L58.1768 158.122ZM13.3525 162.224L15.2812 161.694L15.172 161.296L14.9143 160.974L13.3525 162.224ZM38.4014 122.673L37.0824 121.169L37.0488 121.199L37.0167 121.23L38.4014 122.673ZM60.8135 105.095L61.8097 106.829L62.8135 106.252V105.095H60.8135ZM60.8135 104.875H62.8135V103.283L61.2623 102.926L60.8135 104.875ZM24.6318 93.3027L23.6765 95.0598L23.7207 95.0839L23.766 95.1056L24.6318 93.3027ZM18.4062 29.3623L17.0093 27.9311L16.9657 27.9736L16.9247 28.0188L18.4062 29.3623ZM46.3848 8.41504L45.5419 6.60131L45.535 6.60452L45.5281 6.60778L46.3848 8.41504ZM62.2783 105.314L62.9387 103.427L61.9618 103.085L61.1186 103.685L62.2783 105.314ZM38.6211 124.357L37.2762 122.877L37.2489 122.902L37.2225 122.928L38.6211 124.357ZM25.877 168.522L25.6355 170.508L25.7558 170.522H25.877V168.522ZM69.2363 146.77L70.6316 148.202L70.6907 148.145L70.7448 148.083L69.2363 146.77ZM68.0645 2.62891V4.62891H70.7012V2.62891V0.628906H68.0645V2.62891ZM70.7012 2.62891V4.62891C75.6432 4.62891 79.7931 5.80827 83.2393 8.08738C86.6925 10.3711 89.5687 13.8452 91.815 18.6387L93.626 17.79L95.437 16.9414C92.9469 11.6274 89.6342 7.52096 85.4458 4.751C81.2504 1.9764 76.306 0.628906 70.7012 0.628906V2.62891ZM93.626 17.79L91.7473 18.4759C92.7914 21.3359 93.3105 24.2534 93.3105 27.2383H95.3105H97.3105C97.3105 23.7778 96.7067 20.3965 95.5047 17.1042L93.626 17.79ZM95.3105 27.2383H93.3105C93.3105 34.0847 90.8532 40.5547 85.785 46.6924L87.3271 47.9658L88.8693 49.2393C94.4456 42.4863 97.3105 35.1379 97.3105 27.2383H95.3105ZM87.3271 47.9658L86.489 46.1499C86.2281 46.2703 86.0382 46.3414 85.9102 46.3798C85.7704 46.4217 85.7682 46.4053 85.8623 46.4053V48.4053V50.4053C86.6636 50.4053 87.486 50.0952 88.1653 49.7817L87.3271 47.9658ZM85.8623 48.4053L86.3474 46.465C86.0158 46.3821 85.9266 46.3299 85.9639 46.3508C85.9847 46.3625 86.1328 46.4456 86.2935 46.6364C86.4725 46.8489 86.6904 47.23 86.6904 47.7461H84.6904H82.6904C82.6904 49.0387 83.7021 49.6679 84.0029 49.8371C84.4308 50.0779 84.9276 50.2331 85.3772 50.3456L85.8623 48.4053ZM84.6904 47.7461H86.6904V46.7207H84.6904H82.6904V47.7461H84.6904ZM84.6904 46.7207H86.6904C86.6904 46.7126 86.6912 46.7133 86.6898 46.7192C86.6884 46.7252 86.6869 46.7281 86.6881 46.7256C86.6899 46.7219 86.7165 46.6676 86.8214 46.5725C87.0532 46.3623 87.5435 46.0641 88.459 45.766L87.8398 43.8643L87.2207 41.9625C85.0303 42.6757 82.6904 44.0556 82.6904 46.7207H84.6904ZM87.8398 43.8643L89.5818 44.8469C92.9364 38.9 94.6738 33.0222 94.6738 27.2383H92.6738H90.6738C90.6738 32.1966 89.1886 37.4027 86.0979 42.8816L87.8398 43.8643ZM92.6738 27.2383H94.6738C94.6738 21.7175 93.2945 16.895 90.4407 12.8781C87.5941 8.87125 83.3853 5.81291 77.9671 3.63022L77.2197 5.48535L76.4724 7.34048C81.3569 9.30818 84.8751 11.9505 87.1799 15.1947C89.4775 18.4288 90.6738 22.4075 90.6738 27.2383H92.6738ZM77.2197 5.48535L77.7351 3.55288C74.6461 2.72916 71.5676 2.31348 68.5039 2.31348V4.31348V6.31348C71.2019 6.31348 73.934 6.67905 76.7044 7.41782L77.2197 5.48535ZM68.5039 4.31348V2.31348C53.4603 2.31348 36.9138 11.3517 18.9242 28.6532L20.3105 30.0947L21.6969 31.5362C39.4495 14.4628 55.0319 6.31348 68.5039 6.31348V4.31348ZM20.3105 30.0947L18.7901 28.7954C9.28061 39.9225 3.85186 49.4163 3.1574 57.1622L5.14941 57.3408L7.14142 57.5194C7.7165 51.1051 12.3952 42.4349 21.8309 31.3941L20.3105 30.0947ZM5.14941 57.3408L3.21818 56.8209C2.82588 58.278 2.63672 59.8217 2.63672 61.4424H4.63672H6.63672C6.63672 60.1334 6.78936 58.9427 7.08065 57.8608L5.14941 57.3408ZM4.63672 61.4424H2.63672V63.127H4.63672H6.63672V61.4424H4.63672ZM4.63672 63.127H2.63672C2.63672 73.1811 7.91792 81.7366 17.8931 88.7839C27.8117 95.7912 42.5167 101.431 61.8371 105.8L62.2783 103.85L62.7195 101.899C43.6122 97.5773 29.4964 92.0838 20.2011 85.5169C10.9624 78.99 6.63672 71.5298 6.63672 63.127H4.63672ZM62.2783 103.85L63.3611 105.531C79.7303 94.9908 93.4879 88.5659 104.676 86.1006L104.246 84.1475L103.816 82.1943C91.9574 84.8072 77.7365 91.517 61.1955 102.168L62.2783 103.85ZM104.246 84.1475L102.457 85.0419L102.677 85.4813L104.466 84.5869L106.255 83.6925L106.035 83.253L104.246 84.1475ZM104.466 84.5869H102.466C102.466 84.1385 102.625 83.8091 102.734 83.6345C102.842 83.4616 102.95 83.3606 102.988 83.3262C103.061 83.2612 103.073 83.2695 102.938 83.3427C102.686 83.4799 102.222 83.6843 101.486 83.9551C100.037 84.4884 97.8102 85.1792 94.7713 86.0301L95.3105 87.9561L95.8498 89.882C98.9144 89.0239 101.265 88.2987 102.868 87.709C103.658 87.4182 104.338 87.1344 104.849 86.8565C105.096 86.7222 105.394 86.5413 105.657 86.3053C105.829 86.1514 106.466 85.5632 106.466 84.5869H104.466ZM95.3105 87.9561L94.5784 86.0949C84.1388 90.2014 73.6456 95.6605 63.0987 102.462L64.1826 104.143L65.2665 105.823C75.6181 99.1481 85.8768 93.8161 96.0427 89.8172L95.3105 87.9561ZM64.1826 104.143H62.1826V104.582H64.1826H66.1826V104.143H64.1826ZM64.1826 104.582L63.5178 106.468C69.2895 108.503 73.4283 111.035 76.1096 113.97C78.7509 116.86 80.0537 120.218 80.0537 124.138H82.0537H84.0537C84.0537 119.22 82.378 114.899 79.0623 111.271C75.7866 107.687 70.9898 104.861 64.8474 102.696L64.1826 104.582ZM82.0537 124.138H80.0537C80.0537 133.629 72.8021 144.434 56.9628 156.533L58.1768 158.122L59.3908 159.711C75.3873 147.493 84.0537 135.643 84.0537 124.138H82.0537ZM58.1768 158.122L57.0608 156.462C45.7419 164.073 36.0049 167.694 27.7812 167.694V169.694V171.694C37.1357 171.694 47.6624 167.601 59.2927 159.782L58.1768 158.122ZM27.7812 169.694V167.694H26.3164V169.694V171.694H27.7812V169.694ZM26.3164 169.694V167.694C22.8788 167.694 20.3663 167.102 18.6175 166.094C16.931 165.122 15.8309 163.697 15.2812 161.694L13.3525 162.224L11.4239 162.753C12.2414 165.731 13.9855 168.041 16.6203 169.56C19.1928 171.042 22.4786 171.694 26.3164 171.694V169.694ZM13.3525 162.224L14.9143 160.974C15.0402 161.132 15.0715 161.256 15.0731 161.262C15.0746 161.268 15.0708 161.255 15.0669 161.218C15.063 161.181 15.0596 161.126 15.0596 161.052H13.0596H11.0596C11.0596 161.748 11.1704 162.697 11.7908 163.473L13.3525 162.224ZM13.0596 161.052H15.0596V159.587H13.0596H11.0596V161.052H13.0596ZM13.0596 159.587H15.0596C15.0596 156 16.8932 151.238 21.0439 145.192C25.1597 139.196 31.3885 132.174 39.7861 124.116L38.4014 122.673L37.0167 121.23C28.5197 129.383 22.0776 136.618 17.7462 142.928C13.4496 149.186 11.0596 154.776 11.0596 159.587H13.0596ZM38.4014 122.673L39.7204 124.176C50.0813 115.086 57.4149 109.354 61.8097 106.829L60.8135 105.095L59.8172 103.361C55.0324 106.109 47.4245 112.096 37.0824 121.169L38.4014 122.673ZM60.8135 105.095H62.8135V104.875H60.8135H58.8135V105.095H60.8135ZM60.8135 104.875L61.2623 102.926C45.8471 99.3761 33.9488 95.5583 25.4976 91.4998L24.6318 93.3027L23.766 95.1056C32.6 99.3479 44.8229 103.245 60.3647 106.824L60.8135 104.875ZM24.6318 93.3027L25.5871 91.5456C10.7473 83.4774 4 74.4356 4 64.5918H2H0C0 76.623 8.34055 86.7218 23.6765 95.0598L24.6318 93.3027ZM2 64.5918H4V61.4424H2H0V64.5918H2ZM2 61.4424H4C4 52.8705 9.05665 42.6491 19.8878 30.7059L18.4062 29.3623L16.9247 28.0188C5.88085 40.1966 0 51.3619 0 61.4424H2ZM18.4062 29.3623L19.8032 30.7935C29.9243 20.9146 39.0697 14.0956 47.2414 10.2223L46.3848 8.41504L45.5281 6.60778C36.8053 10.7423 27.2983 17.8881 17.0093 27.9311L18.4062 29.3623ZM46.3848 8.41504L47.2276 10.2288C55.3821 6.43934 62.3099 4.62891 68.0645 4.62891V2.62891V0.628906C61.5143 0.628906 53.989 2.6759 45.5419 6.60131L46.3848 8.41504ZM62.2783 105.314L61.1186 103.685C52.7538 109.639 44.8062 116.036 37.2762 122.877L38.6211 124.357L39.966 125.838C47.3774 119.104 55.2013 112.807 63.4381 106.944L62.2783 105.314ZM38.6211 124.357L37.2225 122.928C29.3134 130.665 23.3141 137.508 19.2787 143.448C15.28 149.335 13.0371 154.582 13.0371 159.074H15.0371H17.0371C17.0371 155.803 18.7249 151.382 22.5875 145.696C26.4135 140.064 32.2062 133.431 40.0197 125.787L38.6211 124.357ZM15.0371 159.074H13.0371V161.052H15.0371H17.0371V159.074H15.0371ZM15.0371 161.052H13.0371C13.0371 163.813 14.3086 166.055 16.6121 167.642C18.8054 169.154 21.8878 170.052 25.6355 170.508L25.877 168.522L26.1184 166.537C22.6395 166.114 20.302 165.327 18.882 164.349C17.5723 163.446 17.0371 162.392 17.0371 161.052H15.0371ZM25.877 168.522V170.522H27.5615V168.522V166.522H25.877V168.522ZM27.5615 168.522V170.522C41.2145 170.522 55.5842 162.855 70.6316 148.202L69.2363 146.77L67.841 145.337C53.1033 159.688 39.6898 166.522 27.5615 166.522V168.522ZM69.2363 146.77L70.7448 148.083C78.1121 139.62 82.0762 131.548 82.0762 123.918H80.0762H78.0762C78.0762 130.155 74.8137 137.317 67.7279 145.456L69.2363 146.77ZM80.0762 123.918H82.0762C82.0762 114.389 75.1105 107.684 62.9387 103.427L62.2783 105.314L61.618 107.202C73.1766 111.245 78.0762 116.943 78.0762 123.918H80.0762ZM132.151 51.9941L132.48 50.0214L132.317 49.9941H132.151V51.9941ZM130.174 64.7383L132.102 65.2683L132.113 65.2299L132.122 65.191L130.174 64.7383ZM122.703 85.3926L124.486 86.2983L124.491 86.2894L124.495 86.2805L122.703 85.3926ZM117.649 92.6436L118.877 94.2223L118.965 94.1543L119.044 94.077L117.649 92.6436ZM110.545 90.2998L108.578 90.664L108.592 90.7379L108.611 90.8106L110.545 90.2998ZM110.179 85.9053H112.179V79.6375L108.548 84.7469L110.179 85.9053ZM106.883 90.2998L108.297 91.714L108.368 91.6435L108.431 91.5663L106.883 90.2998ZM99.6318 93.083H97.6318V93.2251L97.6519 93.3659L99.6318 93.083ZM103.221 85.0264L101.679 83.7526L101.62 83.8243L101.567 83.9011L103.221 85.0264ZM110.325 82.7559H112.325V82.0543L111.887 81.5065L110.325 82.7559ZM110.325 82.9023L112.223 83.5348L112.325 83.2269V82.9023H110.325ZM110.252 83.1221L108.355 82.4896L106.645 87.6187L111.281 84.8371L110.252 83.1221ZM114.061 92.79L112.833 94.3687L113.073 94.5557L113.358 94.6627L114.061 92.79ZM123.069 81.1445L124.897 81.9568L124.905 81.9388L124.913 81.9206L123.069 81.1445ZM127.757 67.8145L129.672 68.3925L129.674 68.385L127.757 67.8145ZM131.126 52.3604L129.846 50.8239L129.274 51.3001L129.153 52.0341L131.126 52.3604ZM101.463 92.4238L99.485 92.1271L99.4207 92.5562L99.5398 92.9733L101.463 92.4238ZM101.829 92.9365V94.9365H102.066L102.296 94.8813L101.829 92.9365ZM107.469 87.5166L109.057 88.7315L109.081 88.7005L109.104 88.6685L107.469 87.5166ZM110.105 83.2686L111.642 84.5489L114.376 81.2686H110.105V83.2686ZM110.032 83.2686V81.2686H109.204L108.618 81.8543L110.032 83.2686ZM109.227 83.5615V85.5615H109.351L109.475 85.5461L109.227 83.5615ZM108.201 83.1953L109.172 81.447L108.942 81.319L108.686 81.255L108.201 83.1953ZM107.908 83.1221L108.393 81.1818L108.154 81.1221H107.908V83.1221ZM103.147 88.1758L101.417 87.1727L101.397 87.2081L101.378 87.2443L103.147 88.1758ZM134.642 47.2334H136.642V47.0805L136.618 46.9293L134.642 47.2334ZM133.47 50.0166L131.828 48.8745L131.543 49.2841L131.484 49.7796L133.47 50.0166ZM131.712 96.7451V98.7451H133.158L133.611 97.3723L131.712 96.7451ZM160.276 85.0996L161.738 86.4646L162.276 85.8882V85.0996H160.276ZM161.302 84.2939V82.2939H160.83L160.407 82.5051L161.302 84.2939ZM161.888 84.2939L162.28 82.3328L162.086 82.2939H161.888V84.2939ZM162.254 84.8799L163.727 86.2321L164.254 85.6585V84.8799H162.254ZM131.932 100.261L133.108 101.878L133.605 101.517L133.813 100.939L131.932 100.261ZM131.126 100.847V102.847H131.776L132.302 102.464L131.126 100.847ZM129.148 94.9873H127.148V95.0123L127.149 95.0373L129.148 94.9873ZM131.712 47.6729L130.021 46.6049L129.798 46.9573L129.735 47.3694L131.712 47.6729ZM131.858 51.9941V53.9941H132.151V51.9941V49.9941H131.858V51.9941ZM132.151 51.9941L131.823 53.9669C131.797 53.9627 131.512 53.9181 131.201 53.6588C131.03 53.5167 130.865 53.3195 130.747 53.0657C130.631 52.8133 130.591 52.5667 130.591 52.3604H132.591H134.591C134.591 51.6858 134.303 51.0374 133.761 50.5859C133.304 50.2045 132.799 50.0744 132.48 50.0214L132.151 51.9941ZM132.591 52.3604H130.591C130.591 52.791 130.435 53.9562 130.024 56.0603C129.627 58.0896 129.029 60.8284 128.226 64.2856L130.174 64.7383L132.122 65.191C132.93 61.7146 133.54 58.9235 133.95 56.8269C134.344 54.805 134.591 53.2481 134.591 52.3604H132.591ZM130.174 64.7383L128.245 64.2082C125.971 72.4825 123.521 79.2367 120.911 84.5046L122.703 85.3926L124.495 86.2805C127.256 80.7086 129.787 73.6933 132.102 65.2683L130.174 64.7383ZM122.703 85.3926L120.92 84.4868C119.423 87.4341 117.858 89.6506 116.255 91.2101L117.649 92.6436L119.044 94.077C121.055 92.1209 122.858 89.5034 124.486 86.2983L122.703 85.3926ZM117.649 92.6436L116.422 91.0649C115.157 92.0486 114.543 92.1816 114.427 92.1816V94.1816V96.1816C115.97 96.1816 117.505 95.2893 118.877 94.2223L117.649 92.6436ZM114.427 94.1816V92.1816H113.914V94.1816V96.1816H114.427V94.1816ZM113.914 94.1816V92.1816C113.772 92.1816 113.633 92.1571 113.41 91.9002C113.131 91.5779 112.782 90.9369 112.479 89.789L110.545 90.2998L108.611 90.8106C108.992 92.2506 109.546 93.5506 110.389 94.5221C111.29 95.5592 112.493 96.1816 113.914 96.1816V94.1816ZM110.545 90.2998L112.511 89.9356C112.294 88.7585 112.179 87.418 112.179 85.9053H110.179H108.179C108.179 87.6152 108.308 89.2044 108.578 90.664L110.545 90.2998ZM110.179 85.9053L108.548 84.7469C107.242 86.5855 106.173 88.0091 105.335 89.0333L106.883 90.2998L108.431 91.5663C109.351 90.442 110.479 88.936 111.809 87.0637L110.179 85.9053ZM106.883 90.2998L105.469 88.8856C104.251 90.1034 103.238 90.9498 102.424 91.4794C101.569 92.035 101.134 92.1084 101.023 92.1084V94.1084V96.1084C102.28 96.1084 103.505 95.547 104.604 94.8331C105.742 94.0932 106.976 93.0353 108.297 91.714L106.883 90.2998ZM101.023 94.1084V92.1084H100.511V94.1084V96.1084H101.023V94.1084ZM100.511 94.1084V92.1084C100.625 92.1084 100.794 92.1292 100.983 92.212C101.176 92.2967 101.332 92.4204 101.443 92.5505C101.643 92.7839 101.633 92.9515 101.612 92.8002L99.6318 93.083L97.6519 93.3659C97.728 93.8981 97.9132 94.5784 98.4063 95.1536C98.9677 95.8086 99.7387 96.1084 100.511 96.1084V94.1084ZM99.6318 93.083H101.632V92.7168H99.6318H97.6318V93.083H99.6318ZM99.6318 92.7168H101.632C101.632 92.3465 101.787 91.6193 102.341 90.4315C102.878 89.2823 103.711 87.8601 104.874 86.1516L103.221 85.0264L101.567 83.9011C100.337 85.7082 99.3767 87.3256 98.7167 88.7399C98.0747 90.1156 97.6318 91.4757 97.6318 92.7168H99.6318ZM103.221 85.0264L104.763 86.3001C106.575 84.1065 107.712 83.6572 108.201 83.6572V81.6572V79.6572C105.761 79.6572 103.578 81.454 101.679 83.7526L103.221 85.0264ZM108.201 81.6572V83.6572C108.34 83.6572 108.501 83.6775 108.763 84.0052L110.325 82.7559L111.887 81.5065C110.977 80.3694 109.723 79.6572 108.201 79.6572V81.6572ZM110.325 82.7559H108.325V82.9023H110.325H112.325V82.7559H110.325ZM110.325 82.9023L108.428 82.2699L108.355 82.4896L110.252 83.1221L112.149 83.7545L112.223 83.5348L110.325 82.9023ZM110.252 83.1221L111.281 84.8371C111.334 84.8053 111.332 84.8118 111.284 84.8299C111.244 84.8447 111.083 84.9023 110.838 84.9023V82.9023V80.9023C110.123 80.9023 109.535 81.2202 109.223 81.4071L110.252 83.1221ZM110.838 82.9023V84.9023H110.984V82.9023V80.9023H110.838V82.9023ZM110.984 82.9023V84.9023C110.935 84.9023 110.796 84.8934 110.619 84.8108C110.432 84.7234 110.281 84.59 110.181 84.4493C110.135 84.3848 110.107 84.3291 110.09 84.291C110.074 84.2533 110.069 84.2312 110.069 84.2308C110.069 84.2303 110.072 84.2465 110.076 84.283C110.08 84.3193 110.083 84.3711 110.083 84.4404H112.083H114.083C114.083 83.75 113.971 82.8731 113.436 82.1244C112.812 81.2517 111.876 80.9023 110.984 80.9023V82.9023ZM112.083 84.4404H110.083C110.083 86.7869 110.251 88.7905 110.631 90.3945C110.998 91.9431 111.635 93.4373 112.833 94.3687L114.061 92.79L115.288 91.2113C115.168 91.1174 114.816 90.7073 114.524 89.4727C114.244 88.2935 114.083 86.635 114.083 84.4404H112.083ZM114.061 92.79L113.358 94.6627C113.573 94.7432 113.779 94.8155 113.962 94.8705C114.064 94.9012 114.413 95.0098 114.793 95.0098V93.0098V91.0098C114.848 91.0098 114.895 91.0123 114.93 91.0151C114.966 91.018 114.997 91.0215 115.02 91.0247C115.065 91.0308 115.097 91.0373 115.111 91.0404C115.127 91.0438 115.135 91.0459 115.133 91.0455C115.132 91.0451 115.125 91.0432 115.111 91.0392C115.084 91.0309 115.041 91.0172 114.98 90.9962C114.92 90.9754 114.848 90.9494 114.763 90.9174L114.061 92.79ZM114.793 93.0098V95.0098C115.956 95.0098 116.947 94.4444 117.714 93.8066C118.502 93.1525 119.262 92.2514 120.004 91.1877C121.492 89.0544 123.121 85.9521 124.897 81.9568L123.069 81.1445L121.242 80.3323C119.502 84.2471 117.994 87.0774 116.723 88.8993C116.086 89.8131 115.561 90.3951 115.158 90.7298C114.736 91.0807 114.631 91.0098 114.793 91.0098V93.0098ZM123.069 81.1445L124.913 81.9206C126.51 78.1274 128.095 73.6143 129.671 68.3925L127.757 67.8145L125.842 67.2364C124.294 72.3661 122.754 76.7398 121.226 80.3684L123.069 81.1445ZM127.757 67.8145L129.674 68.385C130.927 64.1756 132.066 58.9359 133.099 52.6866L131.126 52.3604L129.153 52.0341C128.135 58.1871 127.029 63.2502 125.84 67.2439L127.757 67.8145ZM131.126 52.3604L132.406 53.8968C132.477 53.8377 132.481 53.8454 132.423 53.8745C132.371 53.9005 132.17 53.9941 131.858 53.9941V51.9941V49.9941C130.919 49.9941 130.205 50.5247 129.846 50.8239L131.126 52.3604ZM101.463 92.4238L99.5398 92.9733C99.6142 93.2336 99.7455 93.6143 100 93.9708C100.263 94.3392 100.86 94.9365 101.829 94.9365V92.9365V90.9365C102.651 90.9365 103.114 91.4484 103.255 91.6459C103.388 91.8315 103.409 91.9558 103.386 91.8744L101.463 92.4238ZM101.829 92.9365L102.296 94.8813C103.461 94.6015 104.565 93.7408 105.54 92.8038C106.584 91.8011 107.758 90.4305 109.057 88.7315L107.469 87.5166L105.88 86.3017C104.64 87.923 103.605 89.1159 102.769 89.9198C102.351 90.3208 102.012 90.5975 101.747 90.777C101.47 90.9644 101.349 90.9951 101.362 90.9917L101.829 92.9365ZM107.469 87.5166L109.104 88.6685C109.866 87.5859 110.457 86.7178 110.862 86.0773C111.062 85.7608 111.237 85.4692 111.368 85.2196C111.432 85.0968 111.505 84.9499 111.566 84.7945C111.601 84.7036 111.739 84.3593 111.739 83.9277H109.739H107.739C107.739 83.7077 107.778 83.5444 107.795 83.4805C107.815 83.4037 107.835 83.3516 107.842 83.3333C107.856 83.2985 107.857 83.3019 107.827 83.3591C107.769 83.4696 107.66 83.6572 107.481 83.9388C107.13 84.4946 106.585 85.2989 105.834 86.3647L107.469 87.5166ZM109.739 83.9277H111.739C111.739 84.162 111.692 84.3393 111.66 84.4366C111.626 84.5371 111.592 84.6016 111.579 84.6244C111.557 84.6645 111.563 84.6431 111.642 84.5489L110.105 83.2686L108.569 81.9882C108.403 82.187 108.227 82.4219 108.082 82.6818C107.96 82.9031 107.739 83.3516 107.739 83.9277H109.739ZM110.105 83.2686V81.2686H110.032V83.2686V85.2686H110.105V83.2686ZM110.032 83.2686L108.618 81.8543C108.814 81.6581 108.995 81.5875 109.037 81.5721C109.085 81.5546 109.077 81.5647 108.978 81.577L109.227 83.5615L109.475 85.5461C109.964 85.4849 110.807 85.3222 111.446 84.6828L110.032 83.2686ZM109.227 83.5615V81.5615C109.329 81.5615 109.401 81.574 109.433 81.5807C109.466 81.5876 109.476 81.5924 109.46 81.5865C109.444 81.5809 109.412 81.5683 109.361 81.5446C109.311 81.5212 109.249 81.4893 109.172 81.447L108.201 83.1953L107.23 84.9436C107.714 85.2126 108.439 85.5615 109.227 85.5615V83.5615ZM108.201 83.1953L108.686 81.255L108.393 81.1818L107.908 83.1221L107.423 85.0624L107.716 85.1356L108.201 83.1953ZM107.908 83.1221V81.1221C106.421 81.1221 105.214 82.0937 104.347 83.0141C103.401 84.0184 102.426 85.4322 101.417 87.1727L103.147 88.1758L104.878 89.1788C105.822 87.5502 106.617 86.4372 107.258 85.7569C107.978 84.9927 108.174 85.1221 107.908 85.1221V83.1221ZM103.147 88.1758L101.378 87.2443C100.387 89.1265 99.6848 90.7954 99.485 92.1271L101.463 92.4238L103.441 92.7205C103.534 92.0991 103.955 90.936 104.917 89.1073L103.147 88.1758ZM132.884 46.2812V48.2812H134.056V46.2812V44.2812H132.884V46.2812ZM134.056 46.2812V48.2812C133.744 48.2812 133.433 48.1902 133.167 48.0176C132.92 47.8572 132.783 47.6723 132.719 47.5675C132.61 47.3911 132.631 47.3206 132.665 47.5375L134.642 47.2334L136.618 46.9293C136.554 46.5115 136.429 45.9648 136.125 45.4711C135.777 44.905 135.088 44.2812 134.056 44.2812V46.2812ZM134.642 47.2334H132.642C132.642 47.3333 132.55 47.8372 131.828 48.8745L133.47 50.0166L135.112 51.1587C135.952 49.9499 136.642 48.5984 136.642 47.2334H134.642ZM133.47 50.0166L131.484 49.7796C130.056 61.7448 129.346 75.7678 129.346 91.8379H131.346H133.346C133.346 75.8767 134.052 62.0189 135.456 50.2536L133.47 50.0166ZM131.346 91.8379H129.346V96.3789H131.346H133.346V91.8379H131.346ZM131.346 96.3789H129.346C129.346 96.8093 129.455 97.4994 130.023 98.0678C130.591 98.6362 131.282 98.7451 131.712 98.7451V96.7451V94.7451C131.898 94.7451 132.405 94.793 132.851 95.2394C133.298 95.6857 133.346 96.1927 133.346 96.3789H131.346ZM131.712 96.7451L133.611 97.3723C135.328 92.1738 136.943 88.4091 138.433 85.9812C139.179 84.7665 139.84 83.9763 140.392 83.5088C140.938 83.0471 141.256 82.998 141.38 82.998V80.998V78.998C140.014 78.998 138.813 79.6051 137.808 80.4557C136.81 81.3004 135.89 82.4786 135.025 83.8884C133.293 86.7096 131.563 90.8184 129.813 96.118L131.712 96.7451ZM141.38 80.998V82.998H141.746V80.998V78.998H141.38V80.998ZM141.746 80.998V82.998C141.617 82.998 141.482 82.9313 141.426 82.8787C141.417 82.87 141.531 82.9799 141.672 83.3817C141.96 84.2033 142.163 85.6503 142.163 87.8828H144.163H146.163C146.163 85.5255 145.963 83.5301 145.446 82.0567C145.184 81.3112 144.794 80.5605 144.181 79.978C143.521 79.3516 142.681 78.998 141.746 78.998V80.998ZM144.163 87.8828H142.163C142.163 90.6892 142.357 92.9827 142.825 94.635C143.057 95.457 143.402 96.2829 143.957 96.9368C144.563 97.6502 145.433 98.1592 146.507 98.1592V96.1592V94.1592C146.618 94.1592 146.744 94.1865 146.858 94.2442C146.965 94.2981 147.01 94.3523 147.006 94.347C146.975 94.3112 146.831 94.1026 146.673 93.5451C146.36 92.4387 146.163 90.594 146.163 87.8828H144.163ZM146.507 96.1592V98.1592C147.566 98.1592 148.629 97.7521 149.602 97.2311C150.612 96.6907 151.722 95.9179 152.923 94.9536C155.326 93.0233 158.27 90.1792 161.738 86.4646L160.276 85.0996L158.815 83.7346C155.398 87.3931 152.605 90.0788 150.418 91.835C149.324 92.714 148.426 93.3236 147.714 93.7048C146.966 94.1054 146.596 94.1592 146.507 94.1592V96.1592ZM160.276 85.0996H162.276C162.276 85.6375 162.046 85.996 161.951 86.1258C161.894 86.202 161.845 86.2531 161.818 86.2801C161.789 86.3081 161.771 86.3226 161.768 86.3243C161.766 86.3258 161.797 86.3024 161.876 86.2551C161.953 86.2096 162.058 86.1521 162.196 86.0828L161.302 84.2939L160.407 82.5051C160.021 82.6983 159.625 82.9215 159.297 83.1791C159.134 83.3071 158.919 83.4964 158.73 83.753C158.549 83.9988 158.276 84.4641 158.276 85.0996H160.276ZM161.302 84.2939V86.2939H161.888V84.2939V82.2939H161.302V84.2939ZM161.888 84.2939L161.495 86.2551C161.308 86.2176 160.936 86.0933 160.626 85.7208C160.312 85.3437 160.254 84.9453 160.254 84.7334H162.254H164.254C164.254 84.2773 164.135 83.6837 163.699 83.1601C163.266 82.641 162.712 82.4191 162.28 82.3328L161.888 84.2939ZM162.254 84.7334H160.254V84.8799H162.254H164.254V84.7334H162.254ZM162.254 84.8799L160.78 83.5276C157.002 87.6449 153.868 90.6696 151.364 92.6494C150.112 93.6395 149.061 94.3331 148.202 94.7716C147.32 95.222 146.779 95.3311 146.507 95.3311V97.3311V99.3311C147.675 99.3311 148.871 98.9214 150.021 98.3342C151.195 97.735 152.472 96.8722 153.845 95.7871C156.59 93.6166 159.889 90.4156 163.727 86.2321L162.254 84.8799ZM146.507 97.3311V95.3311H145.481V97.3311V99.3311H146.507V97.3311ZM145.481 97.3311V95.3311C145.47 95.3311 145.487 95.3302 145.516 95.342C145.542 95.353 145.536 95.3581 145.501 95.3235C145.413 95.2375 145.218 94.9806 145.012 94.378C144.596 93.1585 144.332 91.1185 144.332 88.1025H142.332H140.332C140.332 91.2389 140.593 93.8132 141.227 95.6699C141.85 97.4954 143.131 99.3311 145.481 99.3311V97.3311ZM142.332 88.1025H144.332C144.332 86.1002 144.253 84.4874 144.069 83.3361C143.98 82.7805 143.844 82.1827 143.598 81.6731C143.402 81.2656 142.759 80.1699 141.38 80.1699V82.1699V84.1699C140.887 84.1699 140.504 83.9615 140.273 83.7565C140.075 83.58 140 83.4195 139.994 83.4083C139.987 83.3931 140.05 83.5368 140.119 83.97C140.252 84.7963 140.332 86.1498 140.332 88.1025H142.332ZM141.38 82.1699V80.1699H141.16V82.1699V84.1699H141.38V82.1699ZM141.16 82.1699V80.1699C140.373 80.1699 139.726 80.4948 139.266 80.8216C138.798 81.1535 138.382 81.5855 138.013 82.042C137.273 82.9554 136.51 84.2292 135.716 85.7838C134.12 88.9129 132.231 93.53 130.05 99.5828L131.932 100.261L133.813 100.939C135.978 94.9309 137.8 90.5026 139.28 87.6015C140.025 86.1409 140.64 85.1534 141.121 84.5592C141.362 84.2619 141.517 84.1286 141.581 84.0835C141.651 84.0335 141.496 84.1699 141.16 84.1699V82.1699ZM131.932 100.261L130.755 98.6433L129.95 99.2292L131.126 100.847L132.302 102.464L133.108 101.878L131.932 100.261ZM131.126 100.847V98.8467H130.32V100.847V102.847H131.126V100.847ZM130.32 100.847V98.8467C130.753 98.8467 131.102 99.0135 131.327 99.1934C131.524 99.3508 131.605 99.4988 131.615 99.5166C131.628 99.5394 131.56 99.4089 131.476 98.9896C131.315 98.1875 131.196 96.8627 131.148 94.9373L129.148 94.9873L127.149 95.0373C127.199 97.0181 127.323 98.6231 127.553 99.7741C127.665 100.331 127.829 100.933 128.11 101.444C128.361 101.901 129.037 102.847 130.32 102.847V100.847ZM129.148 94.9873H131.148V87.4434H129.148H127.148V94.9873H129.148ZM129.148 87.4434H131.148C131.148 72.1301 132 58.9799 133.689 47.9763L131.712 47.6729L129.735 47.3694C128.006 58.6314 127.148 71.9949 127.148 87.4434H129.148ZM131.712 47.6729L133.403 48.7408C133.679 48.303 133.867 48.0452 133.974 47.9174C134.032 47.8492 134.019 47.8758 133.942 47.9363C133.902 47.9682 133.806 48.04 133.66 48.1095C133.519 48.1764 133.247 48.2812 132.884 48.2812V46.2812V44.2812C132.126 44.2812 131.608 44.6821 131.459 44.8001C131.236 44.9766 131.052 45.1772 130.915 45.3409C130.631 45.677 130.33 46.1149 130.021 46.6049L131.712 47.6729ZM182.469 54.1914L184.441 54.5234L184.469 54.3585V54.1914H182.469ZM178.221 71.2568L180.111 71.9111L180.121 71.8807L180.131 71.8501L178.221 71.2568ZM168.772 91.9111L170.273 93.2332L170.317 93.1838L170.357 93.1316L168.772 91.9111ZM160.936 92.4238L159.009 92.9591L159.017 92.9915L159.028 93.0235L160.936 92.4238ZM161.229 82.3896L159.814 80.9754L159.389 81.4003L159.269 81.9889L161.229 82.3896ZM162.327 81.877L162.481 79.8828L162.293 79.8684L162.106 79.8892L162.327 81.877ZM163.279 82.4629L165.245 82.8337L165.279 82.6499V82.4629H163.279ZM162.547 89.7871H160.547V89.8397L160.55 89.8922L162.547 89.7871ZM164.378 93.9619V95.9619H164.62L164.854 95.9043L164.378 93.9619ZM172.288 82.9756L170.475 82.1308L170.452 82.18L170.432 82.2305L172.288 82.9756ZM180.345 58.9521L182.273 59.4835L182.292 59.4145L182.306 59.3444L180.345 58.9521ZM181.443 54.0449L180.549 52.2561L179.894 52.5837L179.605 53.2571L181.443 54.0449ZM184.227 45.4023L186.212 45.6469L186.296 44.9636L185.942 44.3734L184.227 45.4023ZM182.981 58L184.976 58.1425L184.981 58.0713V58H182.981ZM183.714 110.441H185.714V110.094L185.597 109.767L183.714 110.441ZM182.908 111.101V113.101H183.089L183.266 113.068L182.908 111.101ZM181.663 109.27L183.638 108.954L183.63 108.905L183.62 108.858L181.663 109.27ZM181.956 47.5264L183.944 47.7493L183.946 47.7312L183.947 47.713L181.956 47.5264ZM182.762 45.1826V47.1826H184.762V45.1826H182.762ZM162.767 75.2119L162.134 73.3145L161.863 73.4049L161.628 73.5675L162.767 75.2119ZM163.426 78.4346L163.607 80.4264L164.062 80.3849L164.455 80.1496L163.426 78.4346ZM164.524 76.6768H166.524V76.449L166.473 76.227L164.524 76.6768ZM181.956 53.8984V55.8984H182.249V53.8984V51.8984H181.956V53.8984ZM182.249 53.8984V55.8984C181.834 55.8984 181.232 55.7298 180.814 55.1717C180.476 54.7217 180.469 54.2861 180.469 54.1914H182.469H184.469C184.469 53.9014 184.425 53.3193 184.014 52.7717C183.522 52.1159 182.81 51.8984 182.249 51.8984V53.8984ZM182.469 54.1914L180.496 53.8594C179.685 58.6783 178.295 64.2764 176.311 70.6636L178.221 71.2568L180.131 71.8501C182.151 65.3466 183.592 59.5678 184.441 54.5234L182.469 54.1914ZM178.221 71.2568L176.331 70.6026C172.816 80.7565 169.753 87.3607 167.188 90.6907L168.772 91.9111L170.357 93.1316C173.358 89.235 176.594 82.0696 180.111 71.9111L178.221 71.2568ZM168.772 91.9111L167.272 90.5891C166.437 91.5361 165.728 92.1654 165.148 92.5462C164.563 92.9304 164.223 92.9873 164.085 92.9873V94.9873V96.9873C165.265 96.9873 166.366 96.5315 167.343 95.8904C168.325 95.2457 169.301 94.3369 170.273 93.2332L168.772 91.9111ZM164.085 94.9873V92.9873H163.719V94.9873V96.9873H164.085V94.9873ZM163.719 94.9873V92.9873C163.537 92.9873 163.466 92.9459 163.389 92.8753C163.269 92.7643 163.049 92.4774 162.844 91.8242L160.936 92.4238L159.028 93.0235C159.359 94.0793 159.872 95.0741 160.679 95.8175C161.53 96.6014 162.583 96.9873 163.719 96.9873V94.9873ZM160.936 92.4238L162.863 91.8885C162.675 91.2116 162.569 90.4186 162.569 89.4941H160.569H158.569C158.569 90.7181 158.708 91.8782 159.009 92.9591L160.936 92.4238ZM160.569 89.4941H162.569V88.1758H160.569H158.569V89.4941H160.569ZM160.569 88.1758H162.569C162.569 86.633 162.768 84.842 163.188 82.7904L161.229 82.3896L159.269 81.9889C158.81 84.2342 158.569 86.3006 158.569 88.1758H160.569ZM161.229 82.3896L162.643 83.8039C162.637 83.8096 162.627 83.8185 162.613 83.8284C162.599 83.8384 162.584 83.8472 162.569 83.8541C162.537 83.869 162.524 83.8673 162.548 83.8647L162.327 81.877L162.106 79.8892C161.248 79.9845 160.451 80.3389 159.814 80.9754L161.229 82.3896ZM162.327 81.877L162.174 83.8711C162.369 83.8861 162.234 83.9114 161.993 83.7634C161.849 83.6748 161.653 83.5139 161.498 83.2515C161.338 82.9814 161.279 82.7001 161.279 82.4629H163.279H165.279C165.279 81.5253 164.775 80.7789 164.089 80.3567C163.532 80.0134 162.92 79.9166 162.481 79.8828L162.327 81.877ZM163.279 82.4629L161.314 82.0921C160.806 84.7847 160.547 87.3512 160.547 89.7871H162.547H164.547C164.547 87.6332 164.776 85.3168 165.245 82.8337L163.279 82.4629ZM162.547 89.7871L160.55 89.8922C160.625 91.333 160.788 92.5938 161.107 93.5507C161.266 94.0258 161.51 94.5743 161.922 95.0346C162.376 95.5423 163.063 95.9619 163.938 95.9619V93.9619V91.9619C164.423 91.9619 164.76 92.2076 164.903 92.3674C165.003 92.4798 164.976 92.5064 164.902 92.2858C164.757 91.851 164.615 91.0244 164.544 89.682L162.547 89.7871ZM163.938 93.9619V95.9619H164.378V93.9619V91.9619H163.938V93.9619ZM164.378 93.9619L164.854 95.9043C166.838 95.4179 168.5 93.8792 169.919 91.9079C171.371 89.8916 172.772 87.1377 174.144 83.7207L172.288 82.9756L170.432 82.2305C169.118 85.5029 167.858 87.9248 166.673 89.5706C165.456 91.2615 164.506 91.8712 163.901 92.0195L164.378 93.9619ZM172.288 82.9756L174.101 83.8204C176.519 78.632 179.24 70.4899 182.273 59.4835L180.345 58.9521L178.417 58.4208C175.395 69.3871 172.745 77.2606 170.475 82.1308L172.288 82.9756ZM180.345 58.9521L182.306 59.3444C182.598 57.8849 182.832 56.7608 183.011 55.965C183.1 55.566 183.172 55.2622 183.228 55.0458C183.296 54.7836 183.313 54.759 183.282 54.8328L181.443 54.0449L179.605 53.2571C179.5 53.5018 179.416 53.8098 179.356 54.042C179.284 54.3199 179.201 54.6723 179.107 55.0911C178.919 55.9311 178.678 57.0897 178.384 58.5599L180.345 58.9521ZM181.443 54.0449L182.338 55.8338C182.349 55.8282 182.324 55.8419 182.267 55.8581C182.211 55.8743 182.103 55.8984 181.956 55.8984V53.8984V51.8984C181.384 51.8984 180.897 52.0821 180.549 52.2561L181.443 54.0449ZM183.421 45.0361V47.0361H183.567V45.0361V43.0361H183.421V45.0361ZM183.567 45.0361V47.0361C183.431 47.0361 183.214 47.0055 182.981 46.876C182.745 46.745 182.594 46.5695 182.512 46.4313L184.227 45.4023L185.942 44.3734C185.421 43.5057 184.538 43.0361 183.567 43.0361V45.0361ZM184.227 45.4023L182.242 45.1578C181.417 51.8486 180.981 56.1888 180.981 58H182.981H184.981C184.981 56.4909 185.376 52.4327 186.212 45.6469L184.227 45.4023ZM182.981 58L180.987 57.8575C180.299 67.477 179.956 77.2902 179.956 87.2969H181.956H183.956C183.956 77.3817 184.296 67.6636 184.976 58.1425L182.981 58ZM181.956 87.2969H179.956C179.956 93.4015 180.103 98.4254 180.401 102.353C180.695 106.226 181.147 109.206 181.831 111.116L183.714 110.441L185.597 109.767C185.109 108.405 184.682 105.893 184.39 102.05C184.102 98.2631 183.956 93.3504 183.956 87.2969H181.956ZM183.714 110.441H181.714C181.714 110.258 181.752 110.037 181.859 109.812C181.966 109.588 182.112 109.424 182.246 109.315C182.483 109.121 182.659 109.113 182.55 109.133L182.908 111.101L183.266 113.068C183.695 112.99 184.273 112.824 184.779 112.41C185.369 111.927 185.714 111.223 185.714 110.441H183.714ZM182.908 111.101V109.101H182.615V111.101V113.101H182.908V111.101ZM182.615 111.101V109.101C183.011 109.101 183.343 109.251 183.564 109.429C183.663 109.509 183.728 109.584 183.765 109.633C183.802 109.682 183.819 109.715 183.822 109.72C183.825 109.726 183.798 109.674 183.758 109.531C183.72 109.394 183.678 109.204 183.638 108.954L181.663 109.27L179.688 109.586C179.797 110.267 179.966 110.975 180.273 111.566C180.564 112.125 181.281 113.101 182.615 113.101V111.101ZM181.663 109.27L183.62 108.858C182.689 104.434 182.198 97.2856 182.198 87.2969H180.198H178.198C178.198 97.3276 178.684 104.827 179.706 109.682L181.663 109.27ZM180.198 87.2969H182.198V83.0488H180.198H178.198V87.2969H180.198ZM180.198 83.0488H182.198C182.198 69.8728 182.782 58.1085 183.944 47.7493L181.956 47.5264L179.969 47.3035C178.787 57.8427 178.198 69.76 178.198 83.0488H180.198ZM181.956 47.5264L183.947 47.713C184.016 46.9754 184.103 46.5799 184.159 46.4187C184.189 46.331 184.165 46.447 184.02 46.6188C183.939 46.7151 183.796 46.8574 183.574 46.9773C183.342 47.1037 183.062 47.1826 182.762 47.1826V45.1826V43.1826C181.905 43.1826 181.3 43.6399 180.963 44.0394C180.653 44.4065 180.48 44.8155 180.376 45.1184C180.163 45.7384 180.042 46.5148 179.965 47.3397L181.956 47.5264ZM182.762 45.1826H184.762C184.762 46.0504 184.225 46.574 183.912 46.7826C183.639 46.9649 183.401 47.0161 183.36 47.0251C183.25 47.0496 183.237 47.0361 183.421 47.0361V45.0361V43.0361C183.165 43.0361 182.823 43.047 182.493 43.1204C182.342 43.1538 182.022 43.2355 181.694 43.4544C181.326 43.6997 180.762 44.266 180.762 45.1826H182.762ZM162.767 75.2119L161.628 73.5675C160.854 74.1033 159.814 75.0644 159.814 76.5303H161.814H163.814C163.814 76.6663 163.789 76.7859 163.755 76.88C163.722 76.9707 163.687 77.0245 163.674 77.0421C163.662 77.0588 163.667 77.0474 163.707 77.0111C163.746 76.9751 163.809 76.9228 163.905 76.8563L162.767 75.2119ZM161.814 76.5303H159.814V76.9697H161.814H163.814V76.5303H161.814ZM161.814 76.9697H159.814C159.814 77.7976 160.02 78.8472 160.872 79.6215C161.722 80.394 162.784 80.5011 163.607 80.4264L163.426 78.4346L163.245 76.4428C162.993 76.4657 163.25 76.3775 163.563 76.6617C163.877 76.9478 163.814 77.2161 163.814 76.9697H161.814ZM163.426 78.4346L164.455 80.1496C165.671 79.4197 166.524 78.2396 166.524 76.6768H164.524H162.524C162.524 76.6917 162.523 76.6847 162.529 76.6633C162.535 76.6412 162.545 76.6203 162.554 76.6055C162.573 76.5746 162.555 76.6247 162.397 76.7196L163.426 78.4346ZM164.524 76.6768L166.473 76.227C166.291 75.4385 165.939 74.483 165.146 73.822C164.2 73.0341 163.067 73.0036 162.134 73.3145L162.767 75.2119L163.399 77.1093C163.399 77.1094 163.392 77.1115 163.38 77.1144C163.367 77.1173 163.348 77.1211 163.323 77.1241C163.272 77.1303 163.198 77.1333 163.107 77.1211C162.903 77.094 162.718 77.0061 162.585 76.8948C162.468 76.7972 162.44 76.7243 162.461 76.7655C162.481 76.8066 162.527 76.9165 162.576 77.1265L164.524 76.6768Z" fill="white" mask="url(#path-1-outside-1_1073_2)"/>
</svg>
