<svg width="96" height="36" viewBox="0 0 96 36" fill="none" xmlns="http://www.w3.org/2000/svg">
<path d="M48.9129 11.2922C49.0315 11.1775 49.1009 11.0211 49.1063 10.8559H49.1086C49.1887 7.71295 48.4612 5.25803 46.9483 3.55856C45.3507 1.76468 42.9038 0.843543 39.675 0.820312C36.4519 0.820312 33.6756 1.82731 31.6453 3.73244C29.725 5.53531 28.6415 8.03112 28.5926 10.7597C28.5103 15.4644 31.1684 18.4565 34.1327 21.3525C36.4276 23.7133 36.8487 24.8807 36.8256 26.2125C36.7977 27.7534 36.0644 28.6374 34.8126 28.6374C34.2963 28.6374 33.8821 28.4772 33.585 28.1616C33.121 27.6744 32.9157 26.7938 32.9911 25.6152C33.0036 25.5364 32.9991 25.4556 32.978 25.3789C32.9688 25.3461 32.9569 25.3143 32.9421 25.2838C32.9222 25.2429 32.8973 25.2047 32.8681 25.1696C32.8094 25.0957 32.7351 25.0356 32.6503 24.994C32.5657 24.9521 32.4728 24.9296 32.3784 24.9283H25.6028C25.4376 24.9277 25.2786 24.9917 25.1597 25.1067C25.0409 25.2214 24.9714 25.3781 24.9659 25.5432C24.807 28.8103 25.568 31.3417 27.2283 33.0669C28.8642 34.7656 31.3238 35.6265 34.5434 35.6265C40.848 35.6265 44.991 31.6875 45.0989 25.5942C45.1651 21.8257 43.7902 18.9751 40.3595 15.7568C37.7537 13.2299 36.8383 11.7587 36.8673 10.1402C36.8928 8.68875 37.7653 7.85802 39.1181 7.85802C40.4709 7.85802 41.1322 8.7885 41.1322 10.6993C41.1322 11.1228 41.4907 11.4709 41.92 11.4709H48.4704C48.6356 11.4712 48.7942 11.4068 48.9129 11.2922Z" fill="white"/>
<path d="M28.4726 17.0918V17.0768H28.469C28.4748 16.7612 28.2555 16.4723 27.9446 16.4318C27.9179 16.4259 27.889 16.4259 27.8611 16.4259H15.8763V16.4398C15.5664 16.4769 15.3146 16.6871 15.2531 16.9644L14.0047 22.3869C13.9882 22.46 13.9887 22.536 14.0062 22.6087C14.0236 22.6815 14.0577 22.7495 14.1057 22.807C14.1683 22.8807 14.2461 22.9399 14.3339 22.9804C14.4216 23.0209 14.5173 23.0416 14.6138 23.0412H16.4401C16.5456 23.0412 16.6836 23.0566 16.7335 23.1214C16.7811 23.184 16.7777 23.3246 16.7278 23.5055C16.3728 24.8085 15.5282 26.2367 14.4792 27.0626C13.4293 27.8874 11.6959 28.3818 10.4812 27.637C9.11106 26.7958 8.87898 24.7666 8.82216 23.3234C8.70259 20.2232 9.30943 17.1105 10.501 14.2448C11.3537 12.1935 12.9617 8.49254 15.6883 8.49254C17.2337 8.49254 18.011 9.76863 18.0689 12.3907C18.0704 12.4494 18.0824 12.5068 18.1039 12.5606C18.1279 12.6206 18.1639 12.6759 18.2103 12.7227C18.2982 12.811 18.4166 12.8626 18.5412 12.8663H25.6532C25.8195 12.8663 25.979 12.8011 26.098 12.685C26.217 12.5688 26.2859 12.4108 26.2902 12.2445C26.2856 8.45292 25.42 5.55718 23.7145 3.6336C22.1018 1.81547 19.7838 0.90481 16.8311 0.930204C7.12473 0.930204 2.08371 10.7374 1.01626 20.4566C0.424626 25.6334 1.40149 29.9306 3.76598 32.5552C5.55508 34.5414 7.66427 35.5472 10.7922 35.5472C14.2739 35.5472 16.8797 34.7745 18.9937 33.1177C21.4788 31.172 23.3607 27.9316 24.7506 23.2166C24.766 23.1644 24.7978 23.1189 24.8413 23.0863C24.8848 23.0534 24.9377 23.0359 24.992 23.0357H26.499C26.8517 23.0357 27.158 22.8115 27.2253 22.5053L28.4726 17.0918Z" fill="white"/>
<path fill-rule="evenodd" clip-rule="evenodd" d="M69.4123 34.4717L69.4552 2.06367C69.4565 1.98259 69.4414 1.90185 69.4111 1.82658C69.3975 1.79287 69.3809 1.7603 69.3615 1.72967C69.3378 1.69198 69.31 1.65713 69.2785 1.62548C69.2521 1.59849 69.2231 1.57446 69.1924 1.55317C69.1567 1.52857 69.1185 1.50762 69.0782 1.49122C69.0031 1.46036 68.9226 1.44476 68.8414 1.44533H58.7037C58.3625 1.44533 58.2129 1.73878 58.1154 1.93248L43.4364 34.2731V34.2792L43.4307 34.2874C43.2682 34.685 43.5768 35.111 44.0073 35.111H51.0939C51.4767 35.111 51.7308 34.9949 51.8549 34.7536L53.2623 31.3715C53.4351 30.9203 53.4676 30.8784 53.9595 30.8784H60.7304C61.2015 30.8784 61.2108 30.8878 61.2038 31.3483L61.0519 34.4927C61.0513 34.5273 61.0537 34.5618 61.0591 34.5958C61.0661 34.6414 61.0786 34.6862 61.0959 34.7292C61.1262 34.8046 61.1711 34.8728 61.2282 34.9307C61.2852 34.9882 61.3532 35.0337 61.4282 35.0646C61.5031 35.0958 61.5834 35.1114 61.6644 35.111H68.8241C68.9127 35.1122 69.0005 35.0937 69.0812 35.0572C69.162 35.0207 69.2338 34.9671 69.2916 34.8997C69.3414 34.8414 69.3781 34.7728 69.399 34.6989C69.4197 34.625 69.4243 34.5477 69.4123 34.4717ZM56.8705 23.6518C56.817 23.6518 56.7636 23.6501 56.7104 23.6459C56.6856 23.6438 56.6614 23.6362 56.6398 23.624C56.6182 23.6116 56.5995 23.5945 56.5851 23.5741C56.5783 23.5646 56.5724 23.5541 56.5677 23.5433C56.5626 23.5314 56.559 23.5189 56.5566 23.5061C56.5542 23.4922 56.5534 23.4785 56.5543 23.4646C56.555 23.4535 56.5568 23.4427 56.5595 23.4322C56.5675 23.4056 56.5774 23.3734 56.59 23.3357C56.5993 23.3079 56.6099 23.2772 56.6222 23.2444L61.6993 10.6816C61.7448 10.5578 61.7976 10.4366 61.857 10.3185C61.9394 10.1491 62.0392 10.1375 62.0705 10.2629C62.0972 10.3672 61.4882 23.162 61.4882 23.162C61.4406 23.6413 61.4185 23.6608 60.9462 23.7005L56.8751 23.6541H56.8659L56.8705 23.6518Z" fill="white"/>
<path fill-rule="evenodd" clip-rule="evenodd" d="M78.4687 1.44873H83.8509L83.8567 1.44531C91.7948 1.44531 95.7581 5.0432 95.6327 12.1434C95.4865 20.4635 90.4165 26.5778 82.7824 27.9872C81.6976 28.187 80.5942 28.2645 79.492 28.2589L75.8061 28.2424C75.7456 28.2422 75.6874 28.2656 75.644 28.3076C75.6006 28.3498 75.5755 28.4073 75.574 28.4677C75.5732 28.5084 75.584 28.5486 75.6052 28.5835C75.6264 28.6183 75.657 28.6467 75.6934 28.6648L76.1424 28.8982L77.3027 29.5038L78.4687 30.1105C78.5892 30.1734 78.7099 30.2363 78.8307 30.2983C79.0883 30.4331 79.188 30.6558 79.1301 30.9435L78.3132 34.6296C78.2459 34.9368 77.9988 35.1144 77.6368 35.1144H70.91C70.8135 35.1144 70.7182 35.0935 70.6307 35.0529C70.5431 35.0125 70.4654 34.9535 70.403 34.8802C70.3548 34.8225 70.3206 34.7545 70.3029 34.6814C70.2852 34.6083 70.2845 34.5323 70.3009 34.459L77.7911 1.93839C77.8654 1.59961 78.1844 1.44873 78.4687 1.44873ZM81.875 20.8011H82.019C85.5517 20.6583 87.4777 16.4838 87.5485 12.4336C87.5891 10.0936 86.7351 8.72319 85.2037 8.67673H80.2833C80.2236 8.67673 80.1663 8.69996 80.1236 8.74163C80.0809 8.7832 80.0562 8.83991 80.0547 8.8997C80.0537 8.94046 80.0641 8.981 80.0848 9.01608C80.1055 9.05149 80.1357 9.08007 80.1719 9.09909C80.1719 9.09909 83.2836 10.7397 83.4971 10.8581C83.6641 10.9496 83.6664 11.1051 83.6119 11.3756C83.6113 11.3815 83.1351 13.4747 82.6334 15.6819C82.0736 18.145 81.4822 20.7505 81.4852 20.7547C81.4945 20.7663 81.5514 20.8011 81.875 20.8011Z" fill="white"/>
</svg>
